/* XPM */
static char *shard21712851225[] = {
/* columns rows colors chars-per-pixel */
"64 64 4 1 ",
"  c #AC3232",
". c #8F563B",
"X c #D77BBA",
"o c #F28DD4",
/* pixels */
"................................................................",
"................................................................",
"................................................................",
"................................................................",
"................................................................",
"................................................................",
"................................................................",
"................................................................",
"................................................................",
"................................................................",
"................................................................",
"................................................................",
"................................................................",
"....................................................    ........",
".................................................       ........",
"..............................................         .........",
"...........................................       Xo  ..........",
"........................................       XXXo   ..........",
".....................................       XXXXXXo  ...........",
"..................................       XXXXXXXXo  ............",
"..............................        XXXXXXXXXXo  .............",
"...........................        XXXXXXXXXXXXo   .............",
"........................       XXXXXXXXXXXXXXXXo  ..............",
".....................       XXXXXXXXXXXXXXXXXXo  ...............",
"..................       XXXXXXXXXXXXXXXXXXXXo  ................",
"...............       XXXXXXXXXXXXXXXXXXXXXXo   ................",
"............       XXXXXXXXXXXXXXXXXXXXXXXXXo  .................",
".........       XXXXXXXXXXXXXXXXXXXXXXXXXXXo  ..................",
".......      XXXXXXXXXXXXXXXXXXXXXXXXXXXXXo  ...................",
"......    XXXXXXXXXXXXXXXXXXXXXXXXXXXXXXXo   ...................",
"......   XXXXXXXXXXXXXXXXXXXXXXXXXXXXXXXXo  ....................",
".......   XXXXXXXXXXXXXXXXXXXXXXXXXXXXXXo  .....................",
"........  XXXXXXXXXXXXXXXXXXXXXXXXXXXXXo  ......................",
"........   XXXXXXXXXXXXXXXXXXXXXXXXXXXo   ......................",
".........   XXXXXXXXXXXXXXXXXXXXXXXXXXo  .......................",
"..........   XXXXXXXXXXXXXXXXXXXXXXXXo  ........................",
"...........   XXXXXXXXXXXXXXXXXXXXXXo  .........................",
"............  XXXXXXXXXXXXXXXXXXXXXo   .........................",
"............   XXXXXXXXXXXXXXXXXXXXo  ..........................",
".............   XXXXXXXXXXXXXXXXXXo  ...........................",
"..............   XXXXXXXXXXXXXXXXo  ............................",
"...............  XXXXXXXXXXXXXXXo   ............................",
"...............   XXXXXXXXXXXXXXo  .............................",
"................   XXXXXXXXXXXXo  ..............................",
".................   XXXXXXXXXXo  ...............................",
"..................   XXXXXXXXo   ...............................",
"...................  XXXXXXXXo  ................................",
"...................   XXXXXXo  .................................",
"....................   XXXXo  ..................................",
".....................   XXo   ..................................",
".....................    Xo  ...................................",
".....................    o  ....................................",
".......................    .....................................",
"........................   .....................................",
"........................   .....................................",
"................................................................",
"................................................................",
"................................................................",
"................................................................",
"................................................................",
"................................................................",
"................................................................",
"................................................................",
"................................................................"
};
