/* XPM */
static char *gate21712851581[] = {
/* columns rows colors chars-per-pixel */
"64 64 6 1 ",
"  c black",
". c gray25",
"X c #8F563B",
"o c #D9D030",
"O c #DED531",
"+ c #FBF236",
/* pixels */
"+++++++++++++++++++++++++++++++++++++++++++++++++++++++++++++++o",
"+++++++++++++++++++++++++++++++++++++++++++++++++++++++++++++++o",
"+++++++++++++++++++++++++++++++++++++++++++++++++++++++++++++++o",
"++oXXXXXXXXXX+oXXX+oXXXXXXXXX+oXXXXXXXXXXXXXX+o+oXXXXXXXXXXXX++o",
"++oXXXXXXXXXX+oXXX+oXXXXXXXXX+oXXXXXXXXXXXXXX+o+oXXXXXXXXXXXX++o",
"++oXXXXXXXXXX+oXXX+oXXXXXX   +o     XXXXXXXXX+o+oXXXXXXXXXXXX++o",
"++oXXXXXXXXXX+oXXX+oXXX      +o        XXXXXX+o+oXXXXXXXXXXXX++o",
"++oXXXXXXXXXX+oXXX+oX        +o          XXXX+o+oXXXXXXXXXXXX++o",
"++oXXXXXXXXXX+oXXX+o         +o            XX+o+oXXXXXXXXXXXX++o",
"++oXXXXXXXXXX+oXX +o         +o              +o+oXXXXXXXXXXXX++o",
"++oXXXXXXXXXX+oX  +o         +o              +o+oXXXXXXXXXXXX++o",
"++oXXXXXXXXXX+o   +o         +o              +o+oXXXXXXXXXXXX++o",
"++oXXXXXXXXXX+o   +o         +o              +o+oXXXXXXXXXXXX++o",
"++oXXXXXXXXXX+o   +o         +o              +o+o.XXXXXXXXXXX++o",
"++oXXXXXXXXX +o   +o         +o              +o+o .XXXXXXXXXX++o",
"++oXXXXXXXX  +o   +o         +o              +o+o  .XXXXXXXXX++o",
"++oXXXXXXXX  +o   +o         +o              +o+o  ..XXXXXXXX++o",
"+++++++++++++++++++++++++++++++++++++++++++++++++++++++++++++++o",
"++oXXXXXX    +o   +o         +o              +o+o    .XXXXXXX++o",
"++oXXXXXX    +o   +o         +o              +o+o    ..XXXXXX++o",
"++oXXXXX     +o   +o         +o              +o+o     .XXXXXX++o",
"+++++++++++++++++++++++++++++++++++++++++++++++++++++++++++++++o",
"++oXXXX      +o   +o         +o              +o+o      .XXXXX++o",
"++oXXXX      +o   +o         +o              +o+o      ..XXXX++o",
"++oXXXX      +o   +o         +o              +o+o      ..XXXX++o",
"++oXXXX      +o   +o         +o              +o+o      ..XXXX++o",
"++oXXX       +o   +o         +o              +o+o       .XXXX++o",
"++oXXX       +o   +o         +o              +o+o       ..XXX++o",
"++oXXX       +o   +o         +o              +o+o       ..XXX++o",
"++oXXX  +++++++++++o         +o              +o+o       ..XXX++o",
"++oXX++++OOOOOOOO++++        +o              +o+o       ..XXX++o",
"++o+++OOO++++++++OOO+++      +o              +o+o       ..XXX++o",
"++++OO++++++++++++++OO+++    +o              +o+o       ..XXX++o",
"+++O++++++++++++++++++O++++++++++++++++++++++++++++++++++++++++o",
"++O++++++++++++++++++++O++++ +o              +o+o       ..XXX++o",
"OO++++++++++++++++++++++OO++++o              +o+o      ...XXX++o",
"++++++++++++++++++++++++++O+++o              +o+o      ..XXXX++o",
"++++++++++++++++++++++++++O+++o              +o+o      ..XXXX++o",
"+++++++++++++++++++++++++++O+++              +o+o      ..XXXX++o",
"++++++++++++++++++++++++++++O+++             +o+o     ...XXXX++o",
"++++++++++++++++++++++++++++O+++             +o+o     ..XXXXX++o",
"+++++++++++++++++++++++++++++O+++            +o+o    ...XXXXX++o",
"+++++++++++++++++++++++++++++O+++            +o+o    ..XXXXXX++o",
"++++++++++++++++++++++++++++++O++            +o+o   ...XXXXXX++o",
"++++++++++++++++++++++++++++++O+++           +o+o  ...XXXXXXX++o",
"++++++++++++++++++++++++++++++O+++           +o+o  ..XXXXXXXX++o",
"+++++++++++++++++++++++++++++++O++           +o+o ...XXXXXXXX++o",
"+++++++++++++++++++++++++++++++O++           +o+o...XXXXXXXXX++o",
"+++++++++++++++++++++++++++++++O++           +o+o..XXXXXXXXXX++o",
"+++++++++++++++++++++++++++++++O++           +o+o.XXXXXXXXXXX++o",
"+++++++++++++++++++++++++++++++O+++++++++++++++++++++++++++++++o",
"+++++++++++++++++++++++++++++++O++           +o+oXXXXXXXXXXXX++o",
"+++++++++++++++++++++++++++++++O+++++++++++++++++++++++++++++++o",
"+++++++++++++++++++++++++++++++O+        ....+o+oXXXXXXXXXXXX++o",
"++++++++++++++++++++++++++++++O++      ....XX+o+oXXXXXXXXXXXX++o",
"++++++++++++++++++++++++++++++O++   .....XXXX+o+oXXXXXXXXXXXX++o",
"++++++++++++++++++++++++++++++O+......XXXXXXX+o+oXXXXXXXXXXXX++o",
"+++++++++++++++++++++++++++++O++XXXXXXXXXXXXX+o+oXXXXXXXXXXXX++o",
"+++++++++++++++++++++++++++++O+++++++++++++++++++++++++++++++++o",
"++++++++++++++++++++++++++++O++++++++++++++++++++++++++++++++++o",
"++++++++++++++++++++++++++++O++++++++++++++++++++++++++++++++++o",
"+++++++++++++++++++++++++++O+++++++++++++++++++++++++++++++++++o",
"++++++++++++++++++++++++++O++++++++++++++++++++++++++++++++++++o",
"++++++++++++++++++++++++++O++++++++++++++++++++++++++++++++++++o"
};
