/* XPM */
static char *gate31712851581[] = {
/* columns rows colors chars-per-pixel */
"64 64 6 1 ",
"  c black",
". c gray25",
"X c #8F563B",
"o c #D9D030",
"O c #DED531",
"+ c #FBF236",
/* pixels */
"+++++++++++++++++++++++++++++++++++++++++++++++++++++++++++++++o",
"+++++++++++++++++++++++++++++++++++++++++++++++++++++++++++++++o",
"++++++++++++++++OOOOO++++++++++++++++++++++++++++++++++++++++++o",
"++oXXXX+++++++OO+++++OO+XXXXX+oXXXXXXXXXXXXXX+o+oXXXXXXXXXXXX++o",
"++oXXX+++++++O+++++++++O+XXXX+oXXXXXXXXXXXXXX+o+oXXXXXXXXXXXX++o",
"++oXX+++++++O+++++++++++O+   +o     XXXXXXXXX+o+oXXXXXXXXXXXX++o",
"++oXX++++++O+++++++++++++O   +o        XXXXXX+o+oXXXXXXXXXXXX++o",
"++oX+++++++O+++++++++++++O+  +o          XXXX+o+oXXXXXXXXXXXX++o",
"++o+++++++O+++++++++++++++O+ +o            XX+o+oXXXXXXXXXXXX++o",
"++o+++++++O+++++++++++++++O+ +o              +o+oXXXXXXXXXXXX++o",
"+++++++++O+++++++++++++++++O++o              +o+oXXXXXXXXXXXX++o",
"+++++++++O+++++++++++++++++O++o              +o+oXXXXXXXXXXXX++o",
"+++++++++O+++++++++++++++++O++o              +o+oXXXXXXXXXXXX++o",
"++++++++O+++++++++++++++++++O+o              +o+o.XXXXXXXXXXX++o",
"++++++++O+++++++++++++++++++O+o              +o+o .XXXXXXXXXX++o",
"++++++++O+++++++++++++++++++O+o              +o+o  .XXXXXXXXX++o",
"++++++++O+++++++++++++++++++O+o              +o+o  ..XXXXXXXX++o",
"++++++++O+++++++++++++++++++O++++++++++++++++++++++++++++++++++o",
"++++++++O+++++++++++++++++++O+o              +o+o    .XXXXXXX++o",
"++++++++O+++++++++++++++++++O+o              +o+o    ..XXXXXX++o",
"++++++++O+++++++++++++++++++O+o              +o+o     .XXXXXX++o",
"++++++++O+++++++++++++++++++O++++++++++++++++++++++++++++++++++o",
"+++++++++O+++++++++++++++++O++o              +o+o      .XXXXX++o",
"+++++++++O+++++++++++++++++O++o              +o+o      ..XXXX++o",
"+++++++++O+++++++++++++++++O++o              +o+o      ..XXXX++o",
"++++++++++O+++++++++++++++O+++o              +o+o      ..XXXX++o",
"++++++++++O+++++++++++++++O+++o              +o+o       .XXXX++o",
"+++++++++++O+++++++++++++O++++o              +o+o       ..XXX++o",
"++o++++++++O+++++++++++++O++ +o              +o+o       ..XXX++o",
"++o+++++++++O+++++++++++O+++ +o              +o+o       ..XXX++o",
"++oX+++++++++O+++++++++O+++  +o              +o+o       ..XXX++o",
"++oXX+++++++++OO+++++OO+++   +o              +o+o       ..XXX++o",
"++oXX+++++++++++OOOOO+++++   +o              +o+o       ..XXX++o",
"++++++++OOOOOOOO+++++++++++++++++++++++++++++++++++++++++++++++o",
"+++++OOO++++++++OOO+++++     +o              +o+o       ..XXX++o",
"+++OO++++++++++++++OO++++    +o              +o+o      ...XXX++o",
"++O++++++++++++++++++O++++   +o              +o+o      ..XXXX++o",
"+O++++++++++++++++++++O++++  +o              +o+o      ..XXXX++o",
"O++++++++++++++++++++++O++++ +o              +o+o      ..XXXX++o",
"++++++++++++++++++++++++O+++ +o              +o+o     ...XXXX++o",
"+++++++++++++++++++++++++O++++o              +o+o     ..XXXXX++o",
"++++++++++++++++++++++++++O+++o              +o+o    ...XXXXX++o",
"++++++++++++++++++++++++++O+++o              +o+o    ..XXXXXX++o",
"+++++++++++++++++++++++++++O++o              +o+o   ...XXXXXX++o",
"+++++++++++++++++++++++++++O+++              +o+o  ...XXXXXXX++o",
"+++++++++++++++++++++++++++O+++              +o+o  ..XXXXXXXX++o",
"++++++++++++++++++++++++++++O++              +o+o ...XXXXXXXX++o",
"++++++++++++++++++++++++++++O++              +o+o...XXXXXXXXX++o",
"++++++++++++++++++++++++++++O++              +o+o..XXXXXXXXXX++o",
"++++++++++++++++++++++++++++O++              +o+o.XXXXXXXXXXX++o",
"++++++++++++++++++++++++++++O++++++++++++++++++++++++++++++++++o",
"++++++++++++++++++++++++++++O++              +o+oXXXXXXXXXXXX++o",
"+++++++++++++++++++++++++++O+++++++++++++++++++++++++++++++++++o",
"+++++++++++++++++++++++++++O++o          ....+o+oXXXXXXXXXXXX++o",
"+++++++++++++++++++++++++++O++o        ....XX+o+oXXXXXXXXXXXX++o",
"++++++++++++++++++++++++++O+++o     .....XXXX+o+oXXXXXXXXXXXX++o",
"++++++++++++++++++++++++++O+++o.......XXXXXXX+o+oXXXXXXXXXXXX++o",
"+++++++++++++++++++++++++O++X+oXXXXXXXXXXXXXX+o+oXXXXXXXXXXXX++o",
"++++++++++++++++++++++++O++++++++++++++++++++++++++++++++++++++o",
"O++++++++++++++++++++++O+++++++++++++++++++++++++++++++++++++++o",
"+O++++++++++++++++++++O++++++++++++++++++++++++++++++++++++++++o",
"++O++++++++++++++++++O+++++++++++++++++++++++++++++++++++++++++o",
"+++OO++++++++++++++OO++++++++++++++++++++++++++++++++++++++++++o",
"+++++OOO++++++++OOO++++++++++++++++++++++++++++++++++++++++++++o"
};
