/* XPM */
static char *gate51712851581[] = {
/* columns rows colors chars-per-pixel */
"64 64 6 1 ",
"  c black",
". c gray25",
"X c #8F563B",
"o c #D9D030",
"O c #DED531",
"+ c #FBF236",
/* pixels */
"++++++++++++++++++++++++++++++++++++++++OO++++++++++++++OO+++++o",
"++++++++++++++++++++++++++++++++++++++OO++++++++++++++++++OO+++o",
"+++++++++++++++OOOOOOO+++++++++++++++O++++++++++++++++++++++O++o",
"++oXXXXXXX++OOO+++++++OOO+++++++++++O++++++++++++++++++++++++O+o",
"++oXXXXXX++O+++++++++++++O+++++++++O++++++++++++++++++++++++++Oo",
"++oXXXXX+OO+++++++++++++++OO++++++O++++++++++++++++++++++++++++O",
"++oXXXX+O+++++++++++++++++++O+++++O++++++++++++++++++++++++++++O",
"++oXXX+O+++++++++++++++++++++O+++O++++++++++++++++++++++++++++++",
"++oXXX+O+++++++++++++++++++++O+++O++++++++++++++++++++++++++++++",
"++oXX+O+++++++++++++++++++++++O+O+++++++++++++++++++++++++++++++",
"++oXXO+++++++++++++++++++++++++OO+++++++++++++++++++++++++++++++",
"++oXXO+++++++++++++++++++++++++OO+++++++++++++++++++++++++++++++",
"++oX+O+++++++++++++++++++++++++OO+++++++++++++++++++++++++++++++",
"++oXO+++++++++++++++++++++++++++O+++++++++++++++++++++++++++++++",
"++oXO+++++++++++++++++++++++++++O+++++++++++++++++++++++++++++++",
"++oXO+++++++++++++++++++++++++++OO++++++++++++++++++++++++++++++",
"++oXO+++++++++++++++++++++++++++OO++++++++++++++++++++++++++++++",
"++++O+++++++++++++++++++++++++++O+O++++++++++++++++++++++++++++O",
"++oXO+++++++++++++++++++++++++++O+O++++++++++++++++++++++++++++O",
"++oX+O+++++++++++++++++++++++++O+++O++++++++++++++++++++++++++O+",
"++oX+O+++++++++++++++++++++++++O++++O++++++++++++++++++++++++O++",
"+++++O+++++++++++++++++++++++++O+++++O++++++++++++++++++++++O+++",
"++oXX+O+++++++++++++++++++++++O+++++++OO++++++++++++++++++OO++++",
"++oXX++O+++++++++++++++++++++O++++++++++OO++++++++++++++OO++++++",
"++oXXX+O+++++++++++++++++++++O++++++++++++OOOOOOOO+++OOO++++++++",
"++oXXX++O+++++++++++++++++++O+++++++++OOOO+++OOOOOOOOO++++++++++",
"++oXXX ++OO+++++++++++++++OO++++++++OO++++++++++++++++OO++++++++",
"++oXXX  +++O+++++++++++++O+++++++++O++++++++++++++++++++O+++++++",
"++oXXX   +++OOO+++++++OOO++++++++OO++++++++++++++++++++++OO+++++",
"++oXXX  ++OOOOOOOOOOOO++++++++++O++++++++++++++++++++++++++O++++",
"++oXX+++OO+++++++++OO++++++++++O++++++++++++++++++++++++++++O+++",
"++oX++OO+++++++++++++OO+++++++O++++++++++++++++++++++++++++++O++",
"++++OO+++++++++++++++++OO+++++O++++++++++++++++++++++++++++++O++",
"+++O+++++++++++++++++++++O+++O++++++++++++++++++++++++++++++++O+",
"++O+++++++++++++++++++++++O+O++++++++++++++++++++++++++++++++++O",
"+O+++++++++++++++++++++++++OO++++++++++++++++++++++++++++++++++O",
"O+++++++++++++++++++++++++++O++++++++++++++++++++++++++++++++++O",
"+++++++++++++++++++++++++++O+O++++++++++++++++++++++++++++++++++",
"+++++++++++++++++++++++++++O+O++++++++++++++++++++++++++++++++++",
"+++++++++++++++++++++++++++O++O+++++++++++++++++++++++++++++++++",
"+++++++++++++++++++++++++++O++O+++++++++++++++++++++++++++++++++",
"+++++++++++++++++++++++++++O+++O++++++++++++++++++++++++++++++++",
"+++++++++++++++++++++++++++O+++O++++++++++++++++++++++++++++++++",
"+++++++++++++++++++++++++++O++++O+++++++++++++++++++++++++++++++",
"++++++++++++++++++++++++++++O+++O++++++++++++++++++++++++++++++O",
"++++++++++++++++++++++++++++O+++O++++++++++++++++++++++++++++++O",
"++++++++++++++++++++++++++++O+++O++++++++++++++++++++++++++++++O",
"+++++++++++++++++++++++++++++O+++O++++++++++++++++++++++++++++O+",
"++++++++++++++++++++++++++++++O++O+++++++++++++++++++++++++++O++",
"++++++++++++++++++++++++++++++O++O+++++++++++++++++++++++++++O++",
"+++++++++++++++++++++++++++++++O+O++++++++++++++++++++++++++O+++",
"++++++++++++++++++++++++++++++++OO+++++++++++++++++++++++++O++++",
"+++++++++++++++++++++++++++++++++OO++++++++++++++++++++++OO++++o",
"+++++++++++++++++++++++++++++++++O+O++++++++++++++++++++O++++++o",
"+++++++++++++++++++++++++++++++++O++OO++++++++++++++++OO++++X++o",
"++++++++++++++++++++++++++++++++O+++++OOOO++++++++OOOO+++++XX++o",
"++++++++++++++++++++++++++++++++O+++..X+++OOOOOOOO++++++XXXXX++o",
"++++++++++++++++++++++++++++++++O++XXXXXXX+++++++++++XXXXXXXX++o",
"++++++++++++++++++++++++++++++++O++++++++++++++++++++++++++++++o",
"+++++++++++++++++++++++++++++++O+++++++++++++++++++++++++++++++o",
"+++++++++++++++++++++++++++++++O+++++++++++++++++++++++++++++++o",
"++++++++++++++++++++++++++++++O++++++++++++++++++++++++++++++++o",
"++++++++++++++++++++++++++++++O++++++++++++++++++++++++++++++++o",
"+++++++++++++++++++++++++++++O+++++++++++++++++++++++++++++++++o"
};
