/* XPM */
static char *gate41712851581[] = {
/* columns rows colors chars-per-pixel */
"64 64 6 1 ",
"  c black",
". c gray25",
"X c #8F563B",
"o c #D9D030",
"O c #DED531",
"+ c #FBF236",
/* pixels */
"+++++++++++++++++++++++++++++++++++++++++++++++++++++++++++++++o",
"+++++++++++++++++++++++++++++++++++++++++++++++++++++++++++++++o",
"+++++++++++++++++++++++++++++++++++++++++++++++++++++++++++++++o",
"++oXXXXXXX+++++++++++OOOOOO++++XXXXXXXXXXXXXX+o+oXXXXXXXXXXXX++o",
"++oXXXXXX++++++++++OO++++++OO+++XXXXXXXXXXXXX+o+oXXXXXXXXXXXX++o",
"++oXXXXX++++++++++O++++++++++O+++   XXXXXXXXX+o+oXXXXXXXXXXXX++o",
"++oXXXX++++++++++O++++++++++++O+++     XXXXXX+o+oXXXXXXXXXXXX++o",
"++oXXX++++++++++O++++++++++++++O+++      XXXX+o+oXXXXXXXXXXXX++o",
"++oXXX+++++++++O++++++++++++++++O++        XX+o+oXXXXXXXXXXXX++o",
"++oXX++++++++++O++++++++++++++++O+++         +o+oXXXXXXXXXXXX++o",
"++oXX+++++++++O++++++++++++++++++O++         +o+oXXXXXXXXXXXX++o",
"++oXX+++++++++O++++++++++++++++++O++         +o+oXXXXXXXXXXXX++o",
"++oX++++++++++O++++++++++++++++++O+++        +o+oXXXXXXXXXXXX++o",
"++oX+++++++++O++++++++++++++++++++O++        +o+o.XXXXXXXXXXX++o",
"++oX+++++++++O++++++++++++++++++++O++        +o+o .XXXXXXXXXX++o",
"++oX+++++++++O++++++++++++++++++++O++        +o+o  .XXXXXXXXX++o",
"++oX+++++++++O++++++++++++++++++++O++        +o+o  ..XXXXXXXX++o",
"+++++++++++++O++++++++++++++++++++O++++++++++++++++++++++++++++o",
"++oX+++++++++O++++++++++++++++++++O++  +++++++++++++++++XXXXX++o",
"++oX+++++++++O++++++++++++++++++++O++++++++++++++++++++++++XX++o",
"++oX+++++++++O++++++++++++++++++++O+++++++++++++++++++++++++X++o",
"++++++++++++++O++++++++++++++++++O++++++++OOOOOOOOO++++++++++++o",
"++oXX+++++++++O++++++++++++++++++O++++OOOO+++++++++OOOO++++++++o",
"++oXX+++++++++O++++++++++++++++++O++OO+++++++++++++++++OO+++++++",
"++oXXX+++++++++O++++++++++++++++O++O+++++++++++++++++++++O++++++",
"++oXXX+++++++++O++++++++++++++++OOO+++++++++++++++++++++++OO++++",
"++oXXX +++++++++O++++++++++++++OO+++++++++++++++++++++++++++O+++",
"++oXXX  +++++++++O++++++++++++OO+++++++++++++++++++++++++++++O++",
"++oXXX   +++++++++O++++++++++OO+++++++++++++++++++++++++++++++O+",
"++oXXX  +++++++++++OO++++++OO+O+++++++++++++++++++++++++++++++O+",
"++oXX++++++++++++++++OOOOOO++O+++++++++++++++++++++++++++++++++O",
"++oX+++++++++++++++++++++++++O+++++++++++++++++++++++++++++++++O",
"++++++++++++OOOOOOO+++++++++O+++++++++++++++++++++++++++++++++++",
"+++++++++OOO+++++++OOO++++++O+++++++++++++++++++++++++++++++++++",
"+++++++OO+++++++++++++OO++++O+++++++++++++++++++++++++++++++++++",
"+++++OO+++++++++++++++++OO++O+++++++++++++++++++++++++++++++++++",
"++++O+++++++++++++++++++++O+O+++++++++++++++++++++++++++++++++++",
"+++O+++++++++++++++++++++++OO+++++++++++++++++++++++++++++++++++",
"++O+++++++++++++++++++++++++O+++++++++++++++++++++++++++++++++++",
"+O+++++++++++++++++++++++++++O+++++++++++++++++++++++++++++++++O",
"+O+++++++++++++++++++++++++++O+++++++++++++++++++++++++++++++++O",
"O+++++++++++++++++++++++++++++O+++++++++++++++++++++++++++++++O+",
"++++++++++++++++++++++++++++++OO++++++++++++++++++++++++++++++O+",
"+++++++++++++++++++++++++++++++O+++++++++++++++++++++++++++++O++",
"+++++++++++++++++++++++++++++++OO+++++++++++++++++++++++++++O+++",
"++++++++++++++++++++++++++++++++OOO+++++++++++++++++++++++OO++++",
"++++++++++++++++++++++++++++++++O++O+++++++++++++++++++++O++++++",
"++++++++++++++++++++++++++++++++O+++OO+++++++++++++++++OO+++++++",
"+++++++++++++++++++++++++++++++++O++++OOOO+++++++++OOOO+++++++++",
"+++++++++++++++++++++++++++++++++O++++++++OOOOOOOOO+++++++++++++",
"+++++++++++++++++++++++++++++++++O++++++++++++++++++++++++++++++",
"+++++++++++++++++++++++++++++++++O++++++++++++++++++++++++++++++",
"+++++++++++++++++++++++++++++++++O+++++++++++++++++++++++++++++o",
"+++++++++++++++++++++++++++++++++O+++++++++++++++++++++++++++++o",
"+++++++++++++++++++++++++++++++++O++++++++++++++++++++++++++X++o",
"+++++++++++++++++++++++++++++++++O+++++++++++++++++++++++++XX++o",
"++++++++++++++++++++++++++++++++O+++..X+++++++++++++++++XXXXX++o",
"++++++++++++++++++++++++++++++++O++XXXXXXX+++++++++++XXXXXXXX++o",
"++++++++++++++++++++++++++++++++O++++++++++++++++++++++++++++++o",
"+++++++++++++++++++++++++++++++O+++++++++++++++++++++++++++++++o",
"+++++++++++++++++++++++++++++++O+++++++++++++++++++++++++++++++o",
"+++++++++++++++++++++++++++++++O+++++++++++++++++++++++++++++++o",
"O+++++++++++++++++++++++++++++O++++++++++++++++++++++++++++++++o",
"+O+++++++++++++++++++++++++++O+++++++++++++++++++++++++++++++++o"
};
