/* XPM */
static char *gate61712851582[] = {
/* columns rows colors chars-per-pixel */
"64 64 2 1 ",
"  c #DED531",
". c #FBF236",
/* pixels */
"...........   .......   ........................................",
".........  .............  ......................................",
".......  .................  ....................................",
"...... ..................... ...................................",
"..... ....................... ..................................",
".... ......................... .........         ...............",
".... ......................... .....    .........    ...........",
"... ........................... ..  .................  .........",
".. .............................  .....................  .......",
".. ............................  ........................ ......",
". ............................ .. ........................ .....",
". ........................... ... ......................... ....",
". .......................... .... .......................... ...",
" .......................... ...... .......................... ..",
" ......................... ....... ........................... .",
" ......................... ....... ........................... .",
" ........................ ........ ............................ ",
" ........................ ........ ............................ ",
" ........................ ........ ............................ ",
" ....................... ......... .............................",
" ....................... ......... .............................",
". ...................... ........ ..............................",
". ...................... ........ ..............................",
". ...................... ........ ..............................",
".. ..................... ....... ...............................",
".. ...................... ...... .............................. ",
"... ..................... ..... ............................... ",
".... .................... .... ................................ ",
".... ..................... ... ............................... .",
"..... .................... .. ................................ .",
"...... ....................  ................................ ..",
".......  .................   ............................... ...",
".........         ......  ... ............................. ....",
"........      ....      ...... ........................... .....",
"......  ......         ........ ............       ...... ......",
"..... ................. ........  .......   .......   .  .......",
".... ................... .........  ...  ............   ........",
"... ..................... ..........    .........    ... .......",
".. ....................... .......... ..         ........ ......",
". ......................... ........ ..................... .....",
" ........................... ...... ....................... ....",
" ........................... ..... ......................... ...",
"............................. .... ......................... ...",
"............................. ... ........................... ..",
"............................. ... ........................... ..",
".............................. .. ........................... ..",
".............................. . ............................. .",
".............................. . ............................. .",
".............................. . ............................. .",
".............................. . ............................. .",
".............................. . ............................. .",
".............................. . ............................. .",
".............................. . ............................. .",
"............................. ... ........................... ..",
"............................. ... ........................... ..",
"............................. ... ........................... ..",
" ........................... ..... ......................... ...",
" ........................... ..... ......................... ...",
". ......................... ....... ....................... ....",
".. ....................... ......... ..................... .....",
"... ..................... ........... ................... ......",
".... ................... ............. ................. .......",
"..... ................. ...............  .............  ........",
"......  .............  ..................   .......   .........."
};
