/* XPM */
static char *yellow[] = {
/* columns rows colors chars-per-pixel */
"64 64 2 1 ",
"  c #C4A484",
"x c #964B00",
/* pixels */
"xxxxxxxxxxxxxxxxxxxxxxxxxxxxxxxxxxxxxxxxxxxxxxxxxxxxxxxxxxxxxxxx",
"x                                                              x",
"x                                                              x",
"x                                                              x",
"x                                                              x",
"x                                                              x",
"x                                                              x",
"x                                                              x",
"x                                                              x",
"x                                                              x",
"x                                                              x",
"x                                                              x",
"x                                                              x",
"x                                                              x",
"x                                                              x",
"x                                                              x",
"x                                                              x",
"x                                                              x",
"x                                                              x",
"x                                                              x",
"x                                                              x",
"x                                                              x",
"x                                                              x",
"x                                                              x",
"x                                                              x",
"x                                                              x",
"x                                                              x",
"x                                                              x",
"x                                                              x",
"x                                                              x",
"x                                                              x",
"x                                                              x",
"x                                                              x",
"x                                                              x",
"x                                                              x",
"x                                                              x",
"x                                                              x",
"x                                                              x",
"x                                                              x",
"x                                                              x",
"x                                                              x",
"x                                                              x",
"x                                                              x",
"x                                                              x",
"x                                                              x",
"x                                                              x",
"x                                                              x",
"x                                                              x",
"x                                                              x",
"x                                                              x",
"x                                                              x",
"x                                                              x",
"x                                                              x",
"x                                                              x",
"x                                                              x",
"x                                                              x",
"x                                                              x",
"x                                                              x",
"x                                                              x",
"x                                                              x",
"x                                                              x",
"x                                                              x",
"x                                                              x",
"x                                                              x",
"x                                                              x",
"xxxxxxxxxxxxxxxxxxxxxxxxxxxxxxxxxxxxxxxxxxxxxxxxxxxxxxxxxxxxxxxx"
};//72
