/* XPM */
static char *grey[] = {
/* columns rows colors chars-per-pixel */
"64 64 2 1 ",
"  c #C0C0C0",
"1 c #00008B",
/* pixels */
"1111111111111111111111111111111111111111111111111111111111111111",
"1                                                              1",
"1                                                              1",
"1                                                              1",
"1                                                              1",
"1                                                              1",
"1                                                              1",
"1                                                              1",
"1                                                              1",
"1                                                              1",
"1                                                              1",
"1                                                              1",
"1                                                              1",
"1                                                              1",
"1                                                              1",
"1                                                              1",
"1                                                              1",
"1                                                              1",
"1                                                              1",
"1                                                              1",
"1                                                              1",
"1                                                              1",
"1                                                              1",
"1                                                              1",
"1                                                              1",
"1                                                              1",
"1                                                              1",
"1                                                              1",
"1                                                              1",
"1                                                              1",
"1                                                              1",
"1                                                              1",
"1                                                              1",
"1                                                              1",
"1                                                              1",
"1                                                              1",
"1                                                              1",
"1                                                              1",
"1                                                              1",
"1                                                              1",
"1                                                              1",
"1                                                              1",
"1                                                              1",
"1                                                              1",
"1                                                              1",
"1                                                              1",
"1                                                              1",
"1                                                              1",
"1                                                              1",
"1                                                              1",
"1                                                              1",
"1                                                              1",
"1                                                              1",
"1                                                              1",
"1                                                              1",
"1                                                              1",
"1                                                              1",
"1                                                              1",
"1                                                              1",
"1                                                              1",
"1                                                              1",
"1                                                              1",
"1                                                              1",
"1111111111111111111111111111111111111111111111111111111111111111"
};
