/* XPM */
static char *white[] = {
/* columns rows colors chars-per-pixel */
"64 64 2 1 ",
"  c white",
"x c #C4A484",
/* pixels */
"xxxxxxxxxxxxxxxxxxxxxxxxxxxxxxxxxxxxxxxxxxxxxxxxxxxxxxxxxxxxxxxx",
"xxxxxxxxxxxxxxxxxxxxxxxxxxxxxxxxxxxxxxxxxxxxxxxxxxxxxxxxxxxxxxxx",
"xxxxxxxxxxxxxxxxxxxxxxxxxxxxxxxxxxxxxxxxxxxxxxxxxxxxxxxxxxxxxxxx",
"xxxxxxxxxxxxxxxxxxxxxxxxxxxxxxxxxxxxxxxxxxxxxxxxxxxxxxxxxxxxxxxx",
"xxxxxxxxxxxxxxxxxxxxxxxxxxxxxxxxxxxxxxxxxxxxxxxxxxxxxxxxxxxxxxxx",
"xxxxxxxxxxxxxxxxxxxxxxxxxxxxxxxxxxxxxxxxxxxxxxxxxxxxxxxxxxxxxxxx",
"xxxxxxxxxxxxxxxxxxxxxxxxxxxxxxxxxxxxxxxxxxxxxxxxxxxxxxxxxxxxxxxx",
"xxxxxxxxxxxxxxxxxxxxxxxxxxxxxxxxxxxxxxxxxxxxxxxxxxxxxxxxxxxxxxxx",
"xxxxxxxxxxxxxxxxxxxxxxxxxxxxxxxxxxxxxxxxxxxxxxxxxxxxxxxxxxxxxxxx",
"xxx                                                          xxx",
"xxx                                                          xxx",
"xxx                                                          xxx",
"xxx                                                          xxx",
"xxx                                                          xxx",
"xxx                                                          xxx",
"xxx                                                          xxx",
"xxx                                                          xxx",
"xxx                                                          xxx",
"xxx                                                          xxx",
"xxx                                                          xxx",
"xxx                                                          xxx",
"xxx                                                          xxx",
"xxx                                                          xxx",
"xxx                                                          xxx",
"xxx                                                          xxx",
"xxx                                                          xxx",
"xxx                                                          xxx",
"xxx                                                          xxx",
"xxx                                                          xxx",
"xxx                                                          xxx",
"xxx                                                          xxx",
"xxx                                                          xxx",
"xxx                                                          xxx",
"xxx                                                          xxx",
"xxx                                                          xxx",
"xxx                                                          xxx",
"xxx                                                          xxx",
"xxx                                                          xxx",
"xxx                                                          xxx",
"xxx                                                          xxx",
"xxx                                                          xxx",
"xxx                                                          xxx",
"xxx                                                          xxx",
"xxx                                                          xxx",
"xxx                                                          xxx",
"xxx                                                          xxx",
"xxx                                                          xxx",
"xxx                                                          xxx",
"xxx                                                          xxx",
"xxx                                                          xxx",
"xxx                                                          xxx",
"xxx                                                          xxx",
"xxx                                                          xxx",
"xxx                                                          xxx",
"xxx                                                          xxx",
"xxx                                                          xxx",
"xxxxxxxxxxxxxxxxxxxxxxxxxxxxxxxxxxxxxxxxxxxxxxxxxxxxxxxxxxxxxxxx",
"xxxxxxxxxxxxxxxxxxxxxxxxxxxxxxxxxxxxxxxxxxxxxxxxxxxxxxxxxxxxxxxx",
"xxxxxxxxxxxxxxxxxxxxxxxxxxxxxxxxxxxxxxxxxxxxxxxxxxxxxxxxxxxxxxxx",
"xxxxxxxxxxxxxxxxxxxxxxxxxxxxxxxxxxxxxxxxxxxxxxxxxxxxxxxxxxxxxxxx",
"xxxxxxxxxxxxxxxxxxxxxxxxxxxxxxxxxxxxxxxxxxxxxxxxxxxxxxxxxxxxxxxx",
"xxxxxxxxxxxxxxxxxxxxxxxxxxxxxxxxxxxxxxxxxxxxxxxxxxxxxxxxxxxxxxxx",
"xxxxxxxxxxxxxxxxxxxxxxxxxxxxxxxxxxxxxxxxxxxxxxxxxxxxxxxxxxxxxxxx",
"xxxxxxxxxxxxxxxxxxxxxxxxxxxxxxxxxxxxxxxxxxxxxxxxxxxxxxxxxxxxxxxx",
};//72
