/* XPM */
static char *hole1712851052[] = {
/* columns rows colors chars-per-pixel */
"64 64 3 1 ",
"  c black",
". c gray25",
"X c #8F563B",
/* pixels */
"XXXXXXXXXXXXXXXXXXXXXXXXXXXXXXXXXXXXXXXXXXXXXXXXXXXXXXXXXXXXXXXX",
"XXXXXXXXXXXXXXXXXXXXXXXXXXXXXXXXXXXXXXXXXXXXXXXXXXXXXXXXXXXXXXXX",
"XXXXXXXXXXXXXXXXXXXXXXXXXXXXXXXXXXXXXXXXXXXXXXXXXXXXXXXXXXXXXXXX",
"XXXXXXXXXXXXXXXXXXXXXXXXXXXXXXXXXXXXXXXXXXXXXXXXXXXXXXXXXXXXXXXX",
"XXXXXXXXXXXXXXXXXXXXXXXXXXXXXXXXXXXXXXXXXXXXXXXXXXXXXXXXXXXXXXXX",
"XXXXXXXXXXXXXXXXXXXXXXXXXX          XXXXXXXXXXXXXXXXXXXXXXXXXXXX",
"XXXXXXXXXXXXXXXXXXXXXXX                XXXXXXXXXXXXXXXXXXXXXXXXX",
"XXXXXXXXXXXXXXXXXXXXX                    XXXXXXXXXXXXXXXXXXXXXXX",
"XXXXXXXXXXXXXXXXXXX                        XXXXXXXXXXXXXXXXXXXXX",
"XXXXXXXXXXXXXXXXX                            XXXXXXXXXXXXXXXXXXX",
"XXXXXXXXXXXXXXXX                              .XXXXXXXXXXXXXXXXX",
"XXXXXXXXXXXXXXX                                .XXXXXXXXXXXXXXXX",
"XXXXXXXXXXXXXX                                  .XXXXXXXXXXXXXXX",
"XXXXXXXXXXXXX                                    .XXXXXXXXXXXXXX",
"XXXXXXXXXXXX                                      .XXXXXXXXXXXXX",
"XXXXXXXXXXX                                        .XXXXXXXXXXXX",
"XXXXXXXXXXX                                        ..XXXXXXXXXXX",
"XXXXXXXXXX                                          .XXXXXXXXXXX",
"XXXXXXXXX                                            .XXXXXXXXXX",
"XXXXXXXXX                                            ..XXXXXXXXX",
"XXXXXXXX                                              .XXXXXXXXX",
"XXXXXXXX                                              ..XXXXXXXX",
"XXXXXXX                                                .XXXXXXXX",
"XXXXXXX                                                ..XXXXXXX",
"XXXXXXX                                                ..XXXXXXX",
"XXXXXXX                                                ..XXXXXXX",
"XXXXXX                                                  .XXXXXXX",
"XXXXXX                                                  ..XXXXXX",
"XXXXXX                                                  ..XXXXXX",
"XXXXXX                                                  ..XXXXXX",
"XXXXXX                                                  ..XXXXXX",
"XXXXXX                                                  ..XXXXXX",
"XXXXXX                                                  ..XXXXXX",
"XXXXXX                                                  ..XXXXXX",
"XXXXXX                                                  ..XXXXXX",
"XXXXXXX                                                ...XXXXXX",
"XXXXXXX                                                ..XXXXXXX",
"XXXXXXX                                                ..XXXXXXX",
"XXXXXXX                                                ..XXXXXXX",
"XXXXXXXX                                              ...XXXXXXX",
"XXXXXXXX                                              ..XXXXXXXX",
"XXXXXXXXX                                            ...XXXXXXXX",
"XXXXXXXXX                                            ..XXXXXXXXX",
"XXXXXXXXXX                                          ...XXXXXXXXX",
"XXXXXXXXXXX                                        ...XXXXXXXXXX",
"XXXXXXXXXXX                                        ..XXXXXXXXXXX",
"XXXXXXXXXXXX                                      ...XXXXXXXXXXX",
"XXXXXXXXXXXXX                                    ...XXXXXXXXXXXX",
"XXXXXXXXXXXXXX                                  ...XXXXXXXXXXXXX",
"XXXXXXXXXXXXXXX                                ...XXXXXXXXXXXXXX",
"XXXXXXXXXXXXXXXX                              ...XXXXXXXXXXXXXXX",
"XXXXXXXXXXXXXXXXX                            ...XXXXXXXXXXXXXXXX",
"XXXXXXXXXXXXXXXXXXX                        ....XXXXXXXXXXXXXXXXX",
"XXXXXXXXXXXXXXXXXXXXX                    ....XXXXXXXXXXXXXXXXXXX",
"XXXXXXXXXXXXXXXXXXXXXXX                ....XXXXXXXXXXXXXXXXXXXXX",
"XXXXXXXXXXXXXXXXXXXXXXXXX.          .....XXXXXXXXXXXXXXXXXXXXXXX",
"XXXXXXXXXXXXXXXXXXXXXXXXXXXX..........XXXXXXXXXXXXXXXXXXXXXXXXXX",
"XXXXXXXXXXXXXXXXXXXXXXXXXXXXXXXXXXXXXXXXXXXXXXXXXXXXXXXXXXXXXXXX",
"XXXXXXXXXXXXXXXXXXXXXXXXXXXXXXXXXXXXXXXXXXXXXXXXXXXXXXXXXXXXXXXX",
"XXXXXXXXXXXXXXXXXXXXXXXXXXXXXXXXXXXXXXXXXXXXXXXXXXXXXXXXXXXXXXXX",
"XXXXXXXXXXXXXXXXXXXXXXXXXXXXXXXXXXXXXXXXXXXXXXXXXXXXXXXXXXXXXXXX",
"XXXXXXXXXXXXXXXXXXXXXXXXXXXXXXXXXXXXXXXXXXXXXXXXXXXXXXXXXXXXXXXX",
"XXXXXXXXXXXXXXXXXXXXXXXXXXXXXXXXXXXXXXXXXXXXXXXXXXXXXXXXXXXXXXXX",
"XXXXXXXXXXXXXXXXXXXXXXXXXXXXXXXXXXXXXXXXXXXXXXXXXXXXXXXXXXXXXXXX"
};
