/* XPM */
static char *baddie11712851051[] = {
/* columns rows colors chars-per-pixel */
"64 64 7 1 ",
"  c black",
". c #3B691B",
"X c #D91F1F",
"o c #8F563B",
"O c #4B8522",
"+ c #FBF236",
"@ c white",
/* pixels */
"oooooooooooooooooooooooooooooooooooooooooooooooooooooooooooooooo",
"oooooooooooooooooooooooooooooooooooooooooooooooooooooooooooooooo",
"oooooooooooooooooooooooo......oooooooooooooooooooooooooooooooooo",
"oooooooooooooooooooooo..........oooooooooooooooooooooooooooooooo",
"oooooooooooooooooooo....OOOOO.....oooooooooooooooooooooooooooooo",
"ooooooooooooooooooo...OOOOOOOOO....ooooooooooooooooooooooooooooo",
"ooooooooooooo...ooo..OOOOOOOOOOOO..ooooooooooooooooooooooooooooo",
"oooooooooooo.....o..OOOOOOOOOOOOOO..oooooooooooooooooooooooooooo",
"oooooooooooo...OO...OOOOOOOOOOOOOO...ooooooooooooooooooooooooooo",
"ooooooooooo...OOOOOOOOOOOOOOOOOOOOO..ooooooooooooooooooooooooooo",
"ooooooooooo..OOOOOOOOOOOOOOOOOOOOOO...oooooooooooooooooooooooooo",
"oooooooooo...OOOOOOOOOOOOOOOOOOOOOOO..oooooooooooooooooooooooooo",
"oooooooooo..OOOOOOOOOOOOOOOOOOOOOOOO..oooooooooooooooooooooooooo",
"oooooo......OOOOOOOOOOOOOOOOOOOOOOOO......oooooooooooooooooooooo",
"ooooo...OOOOOOOOOOOOOOOOOOOOOOOOOOOOOOOO....oooooooooooooooooooo",
"ooooo...OOOOOOOOOOOOOOOOOOOOOOOOOOOOOOOOO.....oooooooooooooooooo",
"oooo....OOOOOOOOOOOOOOOOOOOOOOOOOOOOOOOOOOO....ooooooooooooooooo",
"ooo....OOOOOOOOOOOOOOOOOOOOOOOOOOOOOOOOOOOOO....oooooooooooooooo",
"ooo...OOOOOOOOOOOOOOOOOOOOOOOOOOOOOOOOOOOOOOO....ooooooooooooooo",
"ooo...OOOOOOOOOOOOOOOOOOOOOOOOOOOOOOOOOOO   OOO...oooooooooooooo",
"ooo...OOOOOOOOOOOOOOOOOOOOOOOOOOOOOO      OOOOO....ooooooooooooo",
"oo...OOOOO    OOOOOOOOOOOOOOOOO     XXXX OOOOOO....ooooooooooooo",
"oo...OOOOO XXX       OOOOOOO   XXXXXXXX OOOOOOOO....oooooooooooo",
"oo...OOOOOO  XXXXXXXX    OOOO XXXXXXXX OOOOOOOOO....oooooooooooo",
"oo...OOOOOOOO XXXXXXXXX OOOOOO XX+++X OOOOOOOOOOO....ooooooooooo",
"oo...OOOOOOOOO  XXXXXX OOOOOOOO X+++ OOOOOOOOOOOO....ooooooooooo",
"oo...OOOOOOOOOOO XX+++ OOOOOOOOO ++ OOOOOOOOOOOOO....ooooooooooo",
"oo...OOOOOOOOOOOO X++ OOOOOOOOOOO  OOOOOOOOOOOOOOO....oooooooooo",
"oo...OOOOOOOOOOOOO  + OOOOOOOOOOOOOOOOOOOOOOOOOOOO....oooooooooo",
"oo...OOOOOOOOOOOOOOO OOOOOOOOOOOOOOOOOOOOOOOOOOOOO....oooooooooo",
"oo....OOOOOOOOOOOOOOOOOOOOOOOOOOOOOOOOOOOOOOOOOOOO....oooooooooo",
"ooo...OOOOOOOOOOOOOOOOOOOOOOOOOOOOOOOOOOOOOOOOOOOO....oooooooooo",
"ooo...OOOOOOOOOOOOOOOOOOOOOOOOOOOOOOOOOOOOOOOOOOOO....oooooooooo",
"ooo...OOOOOOOOOOOOOOOOOOOOOOOOOOOOOOOOOOOOOOOOOOOO....oooooooooo",
"ooo....OOOOOOOOOOOOOOOOOOOOOOOOOOOOOOOOOOOOOOOOOOO....oooooooooo",
"oooo....OOOOOOOOOOOOOOOOOOOOOOOOOOOOOOOOOOOOOOOOO.....oooooooooo",
"ooooo...OOOOOOOOOOOOOOOOOOOOOOOOOOOOOOOOOOOOOOOOO....ooooooooooo",
"ooooo...OOOOOOOOOOOOOOOOOOOOOOOOOOOOOOOOOOOOOOOOO....ooooooooooo",
"oooooo...OOOOOOOOOOOOOO      OOOOOOOOOOOOOOOOOOO.....ooooooooooo",
"ooooooo..OOOOOOOOOOOO  OOOOOO OOOOOOOOOOOOOOOOOO....oooooooooooo",
"ooooooo..OOOOOOOOOO  @OOOOOOOO OOOOOOOOOOOOOOOO.....oooooooooooo",
"ooooooo..OOOOOOOOO O@@OOOOOOOOO OOOOOOOOOOOOOOO....ooooooooooooo",
"ooooooo..OOOOOOOOOOO@@OOOOOOOOOOOOOOOOOOOOOOOO.....ooooooooooooo",
"ooooooo..OOOOOOOOOOOO@OOOOOOOOOOOOOOOOOOOOOOO.....oooooooooooooo",
"ooooooo...OOOOOOOOOOOOOOOOOOOOOOOOOOOOOOOOOO.....ooooooooooooooo",
"ooooooo...OOOOOOOOOOOOOOOOOOOOOOOOOOOOOOOOO.....oooooooooooooooo",
"oooooooo..OOOOOOOOOOOOOOOOOOOOOOOOOOOOOOO......ooooooooooooooooo",
"oooooooo...OOOOOOOOOOOOOOOOOOOOOOOOOOOOO......oooooooooooooooooo",
"oooooooo...OOOOOOOOOOOOOOOOOOOOOOO..........oooooooooooooooooooo",
"ooooooooo...OOOOOOOOOOOOOOOOOOOOO.........oooooooooooooooooooooo",
"ooooooooo.....OOOOOOOOOOOOOOOOO....ooooooooooooooooooooooooooooo",
"oooooooooo.....OOOOOOOOOOOOOOO....oooooooooooooooooooooooooooooo",
"ooooooooooo....OOOOOOOOOOOOOO....ooooooooooooooooooooooooooooooo",
"oooooooooooo.....OOOOOOOOOOO....oooooooooooooooooooooooooooooooo",
"ooooooooooooo......OOOOOOO.....ooooooooooooooooooooooooooooooooo",
"oooooooooooooo................oooooooooooooooooooooooooooooooooo",
"oooooooooooooooo............oooooooooooooooooooooooooooooooooooo",
"oooooooooooooooooo........oooooooooooooooooooooooooooooooooooooo",
"oooooooooooooooooooooooooooooooooooooooooooooooooooooooooooooooo",
"oooooooooooooooooooooooooooooooooooooooooooooooooooooooooooooooo",
"oooooooooooooooooooooooooooooooooooooooooooooooooooooooooooooooo",
"oooooooooooooooooooooooooooooooooooooooooooooooooooooooooooooooo",
"oooooooooooooooooooooooooooooooooooooooooooooooooooooooooooooooo",
"oooooooooooooooooooooooooooooooooooooooooooooooooooooooooooooooo"
};
