/* XPM */
static char *baddie21712851050[] = {
/* columns rows colors chars-per-pixel */
"64 64 7 1 ",
"  c black",
". c #3B691B",
"X c #D91F1F",
"o c #8F563B",
"O c #4B8522",
"+ c #FBF236",
"@ c white",
/* pixels */
"oooooooooooooooooooooooooooooooooooooooooooooooooooooooooooooooo",
"oooooooooooooooooooooooooooooooooooooooooooooooooooooooooooooooo",
"oooooooooooooooooooooooooooooo......oooooooooooooooooooooooooooo",
"oooooooooooooooooooooooooooo..........oooooooooooooooooooooooooo",
"oooooooooooooooooooooooooo....OOOOO.....oooooooooooooooooooooooo",
"ooooooooooooooooooooooooo...OOOOOOOOO....ooooooooooooooooooooooo",
"ooooooooooooooooooo...ooo..OOOOOOOOOOOO..ooooooooooooooooooooooo",
"oooooooooooooooooo.....o..OOOOOOOOOOOOOO..oooooooooooooooooooooo",
"oooooooooooooooooo...OO...OOOOOOOOOOOOOO...ooooooooooooooooooooo",
"ooooooooooooooooo...OOOOOOOOOOOOOOOOOOOOO..ooooooooooooooooooooo",
"ooooooooooooooooo..OOOOOOOOOOOOOOOOOOOOOO...oooooooooooooooooooo",
"oooooooooooooooo...OOOOOOOOOOOOOOOOOOOOOOO..oooooooooooooooooooo",
"oooooooooooooooo..OOOOOOOOOOOOOOOOOOOOOOOO..oooooooooooooooooooo",
"oooooooooooo......OOOOOOOOOOOOOOOOOOOOOOOO......oooooooooooooooo",
"ooooooooooo...OOOOOOOOOOOOOOOOOOOOOOOOOOOOOOOO....oooooooooooooo",
"ooooooooooo...OOOOOOOOOOOOOOOOOOOOOOOOOOOOOOOOO.....oooooooooooo",
"oooooooooo....OOOOOOOOOOOOOOOOOOOOOOOOOOOOOOOOOOO....ooooooooooo",
"ooooooooo....OOOOOOOOOOOOOOOOOOOOOOOOOOOOOOOOOOOOO....oooooooooo",
"ooooooooo...OOOOOOOOOOOOOOOOOOOOOOOOOOOOOOOOOOOOOOO....ooooooooo",
"ooooooooo...OOOOOOOOOOOOOOOOOOOOOOOOOOOOOOOOOOO   OOO...oooooooo",
"ooooooooo...OOOOOOOOOOOOOOOOOOOOOOOOOOOOOO      OOOOO....ooooooo",
"oooooooo...OOOOO    OOOOOOOOOOOOOOOOO     XXXX OOOOOO....ooooooo",
"oooooooo...OOOOO XXX       OOOOOOO   XXXXXXXX OOOOOOOO....oooooo",
"oooooooo...OOOOOO  XXXXXXXX    OOOO XXXXXXXX OOOOOOOOO....oooooo",
"oooooooo...OOOOOOOO XXXXXXXXX OOOOOO XX+++X OOOOOOOOOOO....ooooo",
"oooooooo...OOOOOOOOO  XXXXXX OOOOOOOO X+++ OOOOOOOOOOOO....ooooo",
"oooooooo...OOOOOOOOOOO XX+++ OOOOOOOOO ++ OOOOOOOOOOOOO....ooooo",
"oooooooo...OOOOOOOOOOOO X++ OOOOOOOOOOO  OOOOOOOOOOOOOOO....oooo",
"oooooooo...OOOOOOOOOOOOO  + OOOOOOOOOOOOOOOOOOOOOOOOOOOO....oooo",
"oooooooo...OOOOOOOOOOOOOOO OOOOOOOOOOOOOOOOOOOOOOOOOOOOO....oooo",
"oooooooo....OOOOOOOOOOOOOOOOOOOOOOOOOOOOOOOOOOOOOOOOOOOO....oooo",
"ooooooooo...OOOOOOOOOOOOOOOOOOOOOOOOOOOOOOOOOOOOOOOOOOOO....oooo",
"ooooooooo...OOOOOOOOOOOOOOOOOOOOOOOOOOOOOOOOOOOOOOOOOOOO....oooo",
"ooooooooo...OOOOOOOOOOOOOOOOOOOOOOOOOOOOOOOOOOOOOOOOOOOO....oooo",
"ooooooooo....OOOOOOOOOOOOOOOOOOOOOOOOOOOOOOOOOOOOOOOOOOO....oooo",
"oooooooooo....OOOOOOOOOOOOOOOOOOOOOOOOOOOOOOOOOOOOOOOOO.....oooo",
"ooooooooooo...OOOOOOOOOOOOOOOOOOOOOOOOOOOOOOOOOOOOOOOOO....ooooo",
"ooooooooooo...OOOOOOOOOOOOOOOOOOOOOOOOOOOOOOOOOOOOOOOOO....ooooo",
"oooooooooooo...OOOOOOOOOOOOO      OOOOOOOOOOOOOOOOOOOO.....ooooo",
"ooooooooooooo..OOOOOOOOOOO  OOOOOO OOOOOOOOOOOOOOOOOOO....oooooo",
"ooooooooooooo..OOOOOOOOO  @OOOOOOOO OOOOOOOOOOOOOOOOO.....oooooo",
"ooooooooooooo..OOOOOOOO O@@OOOOOOOOO OOOOOOOOOOOOOOOO....ooooooo",
"ooooooooooooo..OOOOOOOOOO@@OOOOOOOOOOOOOOOOOOOOOOOOO.....ooooooo",
"ooooooooooooo..OOOOOOOOOOO@OOOOOOOOOOOOOOOOOOOOOOOO.....oooooooo",
"ooooooooooooo...OOOOOOOOOOOOOOOOOOOOOOOOOOOOOOOOOO.....ooooooooo",
"ooooooooooooo...OOOOOOOOOOOOOOOOOOOOOOOOOOOOOOOOO.....oooooooooo",
"oooooooooooooo..OOOOOOOOOOOOOOOOOOOOOOOOOOOOOOO......ooooooooooo",
"oooooooooooooo...OOOOOOOOOOOOOOOOOOOOOOOOOOOOO......oooooooooooo",
"oooooooooooooo...OOOOOOOOOOOOOOOOOOOOOOO..........oooooooooooooo",
"ooooooooooooooo...OOOOOOOOOOOOOOOOOOOOO.........oooooooooooooooo",
"ooooooooooooooo.....OOOOOOOOOOOOOOOOO....ooooooooooooooooooooooo",
"oooooooooooooooo.....OOOOOOOOOOOOOOO....oooooooooooooooooooooooo",
"ooooooooooooooooo....OOOOOOOOOOOOOO....ooooooooooooooooooooooooo",
"oooooooooooooooooo.....OOOOOOOOOOO....oooooooooooooooooooooooooo",
"ooooooooooooooooooo......OOOOOOO.....ooooooooooooooooooooooooooo",
"oooooooooooooooooooo................oooooooooooooooooooooooooooo",
"oooooooooooooooooooooo............oooooooooooooooooooooooooooooo",
"oooooooooooooooooooooooo........oooooooooooooooooooooooooooooooo",
"oooooooooooooooooooooooooooooooooooooooooooooooooooooooooooooooo",
"oooooooooooooooooooooooooooooooooooooooooooooooooooooooooooooooo",
"oooooooooooooooooooooooooooooooooooooooooooooooooooooooooooooooo",
"oooooooooooooooooooooooooooooooooooooooooooooooooooooooooooooooo",
"oooooooooooooooooooooooooooooooooooooooooooooooooooooooooooooooo",
"oooooooooooooooooooooooooooooooooooooooooooooooooooooooooooooooo"
};
