/* XPM */
static char *gate[] = {
/* columns rows colors chars-per-pixel */
"64 64 5 1 ",
"  c black",
". c gray25",
"X c #C09F6F",
"o c #D9D030",
"O c #FBF236",
/* pixels */
"OOOOOOOOOOOOOOOOOOOOOOOOOOOOOOOOOOOOOOOOOOOOOOOOOOOOOOOOOOOOOOOo",
"OOOOOOOOOOOOOOOOOOOOOOOOOOOOOOOOOOOOOOOOOOOOOOOOOOOOOOOOOOOOOOOo",
"OOOOOOOOOOOOOOOOOOOOOOOOOOOOOOOOOOOOOOOOOOOOOOOOOOOOOOOOOOOOOOOo",
"OOoXXXXXXXXXXOoXXXOoXXXXXXXXXOoXXXXXXXXXXXXXXOoOoXXXXXXXXXXXXOOo",
"OOoXXXXXXXXXXOoXXXOoXXXXXXXXXOoXXXXXXXXXXXXXXOoOoXXXXXXXXXXXXOOo",
"OOoXXXXXXXXXXOoXXXOoXXXXXX   Oo     XXXXXXXXXOoOoXXXXXXXXXXXXOOo",
"OOoXXXXXXXXXXOoXXXOoXXX      Oo        XXXXXXOoOoXXXXXXXXXXXXOOo",
"OOoXXXXXXXXXXOoXXXOoX        Oo          XXXXOoOoXXXXXXXXXXXXOOo",
"OOoXXXXXXXXXXOoXXXOo         Oo            XXOoOoXXXXXXXXXXXXOOo",
"OOoXXXXXXXXXXOoXX Oo         Oo              OoOoXXXXXXXXXXXXOOo",
"OOoXXXXXXXXXXOoX  Oo         Oo              OoOoXXXXXXXXXXXXOOo",
"OOoXXXXXXXXXXOo   Oo         Oo              OoOoXXXXXXXXXXXXOOo",
"OOoXXXXXXXXXXOo   Oo         Oo              OoOoXXXXXXXXXXXXOOo",
"OOoXXXXXXXXXXOo   Oo         Oo              OoOo.XXXXXXXXXXXOOo",
"OOoXXXXXXXXX Oo   Oo         Oo              OoOo .XXXXXXXXXXOOo",
"OOoXXXXXXXX  Oo   Oo         Oo              OoOo  .XXXXXXXXXOOo",
"OOoXXXXXXXX  Oo   Oo         Oo              OoOo  ..XXXXXXXXOOo",
"OOOOOOOOOOOOOOOOOOOOOOOOOOOOOOOOOOOOOOOOOOOOOOOOOOOOOOOOOOOOOOOo",
"OOoXXXXXX    Oo   Oo         Oo              OoOo    .XXXXXXXOOo",
"OOoXXXXXX    Oo   Oo         Oo              OoOo    ..XXXXXXOOo",
"OOoXXXXX     Oo   Oo         Oo              OoOo     .XXXXXXOOo",
"OOOOOOOOOOOOOOOOOOOOOOOOOOOOOOOOOOOOOOOOOOOOOOOOOOOOOOOOOOOOOOOo",
"OOoXXXX      Oo   Oo         Oo              OoOo      .XXXXXOOo",
"OOoXXXX      Oo   Oo         Oo              OoOo      ..XXXXOOo",
"OOoXXXX      Oo   Oo         Oo              OoOo      ..XXXXOOo",
"OOoXXXX      Oo   Oo         Oo              OoOo      ..XXXXOOo",
"OOoXXX       Oo   Oo         Oo              OoOo       .XXXXOOo",
"OOoXXX       Oo   Oo         Oo              OoOo       ..XXXOOo",
"OOoXXX       Oo   Oo         Oo              OoOo       ..XXXOOo",
"OOoXXX       Oo   Oo         Oo              OoOo       ..XXXOOo",
"OOoXXX       Oo   Oo         Oo              OoOo       ..XXXOOo",
"OOoXXX       Oo   Oo         Oo              OoOo       ..XXXOOo",
"OOoXXX       Oo   Oo         Oo              OoOo       ..XXXOOo",
"OOOOOOOOOOOOOOOOOOOOOOOOOOOOOOOOOOOOOOOOOOOOOOOOOOOOOOOOOOOOOOOo",
"OOoXXX       Oo   Oo         Oo              OoOo       ..XXXOOo",
"OOoXXXX      Oo   Oo         Oo              OoOo      ...XXXOOo",
"OOoXXXX      Oo   Oo         Oo              OoOo      ..XXXXOOo",
"OOoXXXX      Oo   Oo         Oo              OoOo      ..XXXXOOo",
"OOoXXXX      Oo   Oo         Oo              OoOo      ..XXXXOOo",
"OOoXXXXX     Oo   Oo         Oo              OoOo     ...XXXXOOo",
"OOoXXXXX     Oo   Oo         Oo              OoOo     ..XXXXXOOo",
"OOoXXXXXX    Oo   Oo         Oo              OoOo    ...XXXXXOOo",
"OOoXXXXXX    Oo   Oo         Oo              OoOo    ..XXXXXXOOo",
"OOoXXXXXXX   Oo   Oo         Oo              OoOo   ...XXXXXXOOo",
"OOoXXXXXXXX  Oo   Oo         Oo              OoOo  ...XXXXXXXOOo",
"OOoXXXXXXXX  Oo   Oo         Oo              OoOo  ..XXXXXXXXOOo",
"OOoXXXXXXXXX Oo   Oo         Oo              OoOo ...XXXXXXXXOOo",
"OOoXXXXXXXXXXOo   Oo         Oo              OoOo...XXXXXXXXXOOo",
"OOoXXXXXXXXXXOo   Oo         Oo              OoOo..XXXXXXXXXXOOo",
"OOoXXXXXXXXXXOo   Oo         Oo              OoOo.XXXXXXXXXXXOOo",
"OOOOOOOOOOOOOOOOOOOOOOOOOOOOOOOOOOOOOOOOOOOOOOOOOOOOOOOOOOOOOOOo",
"OOoXXXXXXXXXXOoXX Oo         Oo              OoOoXXXXXXXXXXXXOOo",
"OOOOOOOOOOOOOOOOOOOOOOOOOOOOOOOOOOOOOOOOOOOOOOOOOOOOOOOOOOOOOOOo",
"OOoXXXXXXXXXXOoXXXOoX        Oo          ....OoOoXXXXXXXXXXXXOOo",
"OOoXXXXXXXXXXOoXXXOoXXX      Oo        ....XXOoOoXXXXXXXXXXXXOOo",
"OOoXXXXXXXXXXOoXXXOoXXXXX.   Oo     .....XXXXOoOoXXXXXXXXXXXXOOo",
"OOoXXXXXXXXXXOoXXXOoXXXXXXXX.Oo.......XXXXXXXOoOoXXXXXXXXXXXXOOo",
"OOoXXXXXXXXXXOoXXXOoXXXXXXXXXOoXXXXXXXXXXXXXXOoOoXXXXXXXXXXXXOOo",
"OOOOOOOOOOOOOOOOOOOOOOOOOOOOOOOOOOOOOOOOOOOOOOOOOOOOOOOOOOOOOOOo",
"OOOOOOOOOOOOOOOOOOOOOOOOOOOOOOOOOOOOOOOOOOOOOOOOOOOOOOOOOOOOOOOo",
"OOOOOOOOOOOOOOOOOOOOOOOOOOOOOOOOOOOOOOOOOOOOOOOOOOOOOOOOOOOOOOOo",
"OOOOOOOOOOOOOOOOOOOOOOOOOOOOOOOOOOOOOOOOOOOOOOOOOOOOOOOOOOOOOOOo",
"OOOOOOOOOOOOOOOOOOOOOOOOOOOOOOOOOOOOOOOOOOOOOOOOOOOOOOOOOOOOOOOo",
"OOOOOOOOOOOOOOOOOOOOOOOOOOOOOOOOOOOOOOOOOOOOOOOOOOOOOOOOOOOOOOOo"
};
