/* XPM */
static char *shard11712851226[] = {
/* columns rows colors chars-per-pixel */
"64 64 4 1 ",
"  c #AC3232",
". c #C09F6F",
"X c #D77BBA",
"o c #F28DD4",
/* pixels */
"................................................................",
"................................................................",
"................................................................",
"................................................................",
"................................................................",
"................................................................",
"................................................................",
"................................................................",
"................................................................",
"................................................................",
"................................................................",
"...................................................    .........",
".................................................      .........",
"...............................................       ..........",
".............................................     X   ..........",
"..........................................      XXo  ...........",
"........................................      XXXo   ...........",
"......................................     XXXXXXo  ............",
"....................................     XXXXXXXo  .............",
".................................      XXXXXXXXXo  .............",
"...............................      XXXXXXXXXXo  ..............",
".............................     XXXXXXXXXXXXo   ..............",
"...........................     XXXXXXXXXXXXXXo  ...............",
"........................      XXXXXXXXXXXXXXXo  ................",
"......................      XXXXXXXXXXXXXXXXo   ................",
"....................     XXXXXXXXXXXXXXXXXXXo  .................",
"..................     XXXXXXXXXXXXXXXXXXXXo   .................",
"...............      XXXXXXXXXXXXXXXXXXXXXXo  ..................",
".............      XXXXXXXXXXXXXXXXXXXXXXXo  ...................",
"...........     XXXXXXXXXXXXXXXXXXXXXXXXXo   ...................",
".........     XXXXXXXXXXXXXXXXXXXXXXXXXXXo  ....................",
".......     XXXXXXXXXXXXXXXXXXXXXXXXXXXXo   ....................",
".......    XXXXXXXXXXXXXXXXXXXXXXXXXXXXo   .....................",
".........   XXXXXXXXXXXXXXXXXXXXXXXXXXXo  ......................",
"..........  XXXXXXXXXXXXXXXXXXXXXXXXXXo   ......................",
"..........   XXXXXXXXXXXXXXXXXXXXXXXXXo  .......................",
"...........   XXXXXXXXXXXXXXXXXXXXXXXo  ........................",
"............   XXXXXXXXXXXXXXXXXXXXXo   ........................",
".............   XXXXXXXXXXXXXXXXXXXXo  .........................",
"..............   XXXXXXXXXXXXXXXXXXo   .........................",
"...............  XXXXXXXXXXXXXXXXXo   ..........................",
"...............   XXXXXXXXXXXXXXXXo  ...........................",
"................   XXXXXXXXXXXXXXo   ...........................",
".................   XXXXXXXXXXXXXo  ............................",
"..................   XXXXXXXXXXXo   ............................",
"...................   XXXXXXXXXo   .............................",
"....................  XXXXXXXXXo  ..............................",
"....................   XXXXXXXo   ..............................",
".....................   XXXXXoX  ...............................",
"......................   XXXXo   ...............................",
".......................   XXo   ................................",
"........................   Xo  .................................",
".........................  o   .................................",
".........................     ..................................",
"..........................    ..................................",
"...........................  ...................................",
"................................................................",
"................................................................",
"................................................................",
"................................................................",
"................................................................",
"................................................................",
"................................................................",
"................................................................"
};
