/* XPM */
static char *move_left_in11712850308[] = {
/* columns rows colors chars-per-pixel */
"64 64 2 1 ",
"  c #8F563B",
". c white",
/* pixels */
"                                                                ",
"                                                                ",
"                                                                ",
"                                                                ",
".....                                                           ",
"........                                                        ",
"..........                                                      ",
"............                                                    ",
".............                                                   ",
"...............                                                 ",
"................                                                ",
".................                                               ",
"..................                                              ",
"...................                                             ",
"...................                                             ",
"....................                                            ",
".....................                                           ",
".....................                                           ",
"......................                                          ",
".......................                                         ",
".......................                                         ",
".......................                                         ",
"........................                                        ",
"........................                                        ",
"........................                                        ",
".........................                                       ",
".........................                                       ",
".........................                                       ",
".........................                                       ",
".........................                                       ",
".........................                                       ",
".........................                                       ",
".........................                                       ",
".........................                                       ",
".........................                                       ",
".........................                                       ",
".........................                                       ",
"........................                                        ",
"........................                                        ",
"........................                                        ",
".......................                                         ",
".......................                                         ",
".......................                                         ",
"......................                                          ",
".....................                                           ",
".....................                                           ",
"....................                                            ",
"...................                                             ",
"...................                                             ",
"..................                                              ",
".................                                               ",
"................                                                ",
"...............                                                 ",
".............                                                   ",
"............                                                    ",
"..........                                                      ",
"........                                                        ",
".....                                                           ",
"                                                                ",
"                                                                ",
"                                                                ",
"                                                                ",
"                                                                ",
"                                                                "
};
