/* XPM */
static char *move_right_out1712850411[] = {
/* columns rows colors chars-per-pixel */
"64 64 2 1 ",
"  c #8F563B",
". c white",
/* pixels */
"                                                                ",
"                                                                ",
"                                                                ",
"                                                                ",
"                                 ..........                     ",
"                              ................                  ",
"                           ......................               ",
"                          ........................              ",
"                        ............................            ",
"                       ..............................           ",
"                      ................................          ",
"                     ..................................         ",
"                    ....................................        ",
"                   ......................................       ",
"                  ........................................      ",
"                 ..........................................     ",
"                 ..........................................     ",
"                ............................................    ",
"               ..............................................   ",
"               ..............................................   ",
"              ................................................  ",
"              ................................................  ",
"              ................................................  ",
"             .................................................. ",
"             .................................................. ",
"             .................................................. ",
"            ....................................................",
"            ....................................................",
"            ....................................................",
"            ....................................................",
"            ....................................................",
"            ....................................................",
"            ....................................................",
"            ....................................................",
"            ....................................................",
"            ....................................................",
"            ....................................................",
"             .................................................. ",
"             .................................................. ",
"             .................................................. ",
"              ................................................  ",
"              ................................................  ",
"              ................................................  ",
"               ..............................................   ",
"               ..............................................   ",
"                ............................................    ",
"                 ..........................................     ",
"                 ..........................................     ",
"                  ........................................      ",
"                   ......................................       ",
"                    ....................................        ",
"                     ..................................         ",
"                      ................................          ",
"                       ..............................           ",
"                        ............................            ",
"                          ........................              ",
"                           ......................               ",
"                              ................                  ",
"                                 ..........                     ",
"                                                                ",
"                                                                ",
"                                                                ",
"                                                                ",
"                                                                "
};
